<svg width="14" height="18" viewBox="0 0 14 18" fill="none" xmlns="http://www.w3.org/2000/svg">
<path fill-rule="evenodd" clip-rule="evenodd" d="M8.87499 1.08333C8.87499 0.968274 8.78172 0.875 8.66666 0.875H2.83332C1.56767 0.875 0.541656 1.90102 0.541656 3.16667V14.8333C0.541656 16.099 1.56767 17.125 2.83332 17.125H11.1667C12.4323 17.125 13.4583 16.099 13.4583 14.8333V6.62255C13.4583 6.50749 13.365 6.41422 13.25 6.41422H9.49999C9.15481 6.41422 8.87499 6.13439 8.87499 5.78922V1.08333ZM6.99999 7.33333C6.07952 7.33333 5.33332 8.07953 5.33332 9C5.33332 9.92047 6.07952 10.6667 6.99999 10.6667C7.92046 10.6667 8.66666 9.92047 8.66666 9C8.66666 8.07953 7.92046 7.33333 6.99999 7.33333ZM3.66666 14.4167C3.66666 13.036 4.78594 11.9167 6.16666 11.9167H7.83332C9.21404 11.9167 10.3333 13.036 10.3333 14.4167C10.3333 14.8769 9.96023 15.25 9.49999 15.25H4.49999C4.03975 15.25 3.66666 14.8769 3.66666 14.4167Z" fill="black"/>
<path d="M10.125 1.35345C10.125 1.1997 10.2855 1.10208 10.4052 1.19866C10.5059 1.28 10.5965 1.3753 10.6738 1.48296L13.1847 4.98121C13.2419 5.06085 13.18 5.16422 13.0819 5.16422H10.3333C10.2183 5.16422 10.125 5.07094 10.125 4.95588V1.35345Z" fill="black"/>
</svg>
