<svg width="205" height="40" viewBox="0 0 205 40" fill="none" xmlns="http://www.w3.org/2000/svg">
<rect width="40" height="40" rx="20" fill="black"/>
<path d="M20 11.8072C22.6506 11.8072 23.0121 11.8072 24.0964 11.8072C25.0602 11.8072 25.5422 12.0482 25.9036 12.1687C26.3855 12.4096 26.747 12.5301 27.1084 12.8916C27.4699 13.253 27.7108 13.6145 27.8313 14.0964C27.9518 14.4578 28.0723 14.9398 28.1928 15.9036C28.1928 16.988 28.1928 17.2289 28.1928 20C28.1928 22.7711 28.1928 23.0121 28.1928 24.0964C28.1928 25.0602 27.9518 25.5422 27.8313 25.9036C27.5904 26.3855 27.4699 26.747 27.1084 27.1084C26.747 27.4699 26.3855 27.7108 25.9036 27.8313C25.5422 27.9518 25.0602 28.0723 24.0964 28.1928C23.0121 28.1928 22.7711 28.1928 20 28.1928C17.2289 28.1928 16.988 28.1928 15.9036 28.1928C14.9398 28.1928 14.4578 27.9518 14.0964 27.8313C13.6145 27.5904 13.253 27.4699 12.8916 27.1084C12.5301 26.747 12.2892 26.3855 12.1687 25.9036C12.0482 25.5422 11.9277 25.0602 11.8072 24.0964C11.8072 23.0121 11.8072 22.7711 11.8072 20C11.8072 17.2289 11.8072 16.988 11.8072 15.9036C11.8072 14.9398 12.0482 14.4578 12.1687 14.0964C12.4096 13.6145 12.5301 13.253 12.8916 12.8916C13.253 12.5301 13.6145 12.2892 14.0964 12.1687C14.4578 12.0482 14.9398 11.9277 15.9036 11.8072C16.988 11.8072 17.3494 11.8072 20 11.8072ZM20 10C17.2289 10 16.988 10 15.9036 10C14.8193 10 14.0964 10.241 13.494 10.4819C12.8916 10.7229 12.2892 11.0843 11.6867 11.6867C11.0843 12.2892 10.8434 12.7711 10.4819 13.494C10.241 14.0964 10.1205 14.8193 10 15.9036C10 16.988 10 17.3494 10 20C10 22.7711 10 23.0121 10 24.0964C10 25.1807 10.241 25.9036 10.4819 26.506C10.7229 27.1084 11.0843 27.7108 11.6867 28.3133C12.2892 28.9157 12.7711 29.1566 13.494 29.5181C14.0964 29.759 14.8193 29.8795 15.9036 30C16.988 30 17.3494 30 20 30C22.6506 30 23.0121 30 24.0964 30C25.1807 30 25.9036 29.759 26.506 29.5181C27.1084 29.2771 27.7108 28.9157 28.3133 28.3133C28.9157 27.7108 29.1566 27.2289 29.5181 26.506C29.759 25.9036 29.8795 25.1807 30 24.0964C30 23.0121 30 22.6506 30 20C30 17.3494 30 16.988 30 15.9036C30 14.8193 29.759 14.0964 29.5181 13.494C29.2771 12.8916 28.9157 12.2892 28.3133 11.6867C27.7108 11.0843 27.2289 10.8434 26.506 10.4819C25.9036 10.241 25.1807 10.1205 24.0964 10C23.0121 10 22.7711 10 20 10Z" fill="white"/>
<path d="M20 14.8193C17.1084 14.8193 14.8193 17.1084 14.8193 20C14.8193 22.8916 17.1084 25.1807 20 25.1807C22.8916 25.1807 25.1807 22.8916 25.1807 20C25.1807 17.1084 22.8916 14.8193 20 14.8193ZM20 23.3735C18.1928 23.3735 16.6265 21.9277 16.6265 20C16.6265 18.1928 18.0723 16.6265 20 16.6265C21.8072 16.6265 23.3735 18.0723 23.3735 20C23.3735 21.8072 21.8072 23.3735 20 23.3735Z" fill="white"/>
<path d="M25.3012 15.9036C25.9666 15.9036 26.506 15.3642 26.506 14.6988C26.506 14.0334 25.9666 13.494 25.3012 13.494C24.6358 13.494 24.0964 14.0334 24.0964 14.6988C24.0964 15.3642 24.6358 15.9036 25.3012 15.9036Z" fill="white"/>
<rect x="55" width="40" height="40" rx="20" fill="black"/>
<path d="M85.6 14.9C84.9 15.2 84.1 15.4 83.3 15.5C84.1 15 84.8 14.2 85.1 13.3C84.3 13.8 83.5 14.1 82.5 14.3C81.8 13.5 80.7 13 79.6 13C77.4 13 75.6 14.8 75.6 17C75.6 17.3 75.6 17.6 75.7 17.9C72.4 17.7 69.4 16.1 67.4 13.7C67.1 14.3 66.9 15 66.9 15.7C66.9 17.1 67.6 18.3 68.7 19C68 19 67.4 18.8 66.9 18.5C66.9 20.4 68.3 22.1 70.1 22.4C69.8 22.5 69.4 22.5 69 22.5C68.7 22.5 68.5 22.5 68.2 22.4C68.7 24 70.2 25.2 72 25.2C70.6 26.3 68.9 26.9 67 26.9C66.7 26.9 66.4 26.9 66 26.8C67.8 27.9 69.9 28.6 72.2 28.6C79.6 28.6 83.6 22.5 83.6 17.2V16.7C84.4 16.4 85.1 15.7 85.6 14.9Z" fill="white"/>
<rect x="110" width="40" height="40" rx="20" fill="black"/>
<path d="M131.657 20.3648H135.379L135.964 16.5605H131.656V14.4813C131.656 12.901 132.17 11.4996 133.639 11.4996H136V8.17974C135.585 8.12338 134.708 8 133.05 8C129.588 8 127.559 9.8393 127.559 14.0297V16.5605H124V20.3648H127.559V30.821C128.263 30.9276 128.977 31 129.71 31C130.372 31 131.019 30.9391 131.657 30.8522V20.3648Z" fill="white"/>
<rect x="165" width="40" height="40" rx="20" fill="black"/>
<path d="M192.927 12.0625C190.951 10.0937 188.317 9 185.537 9C179.756 9 175.073 13.6667 175.073 19.4271C175.073 21.25 175.585 23.0729 176.463 24.6042L175 30L180.561 28.5417C182.098 29.3438 183.78 29.7812 185.537 29.7812C191.317 29.7812 196 25.1146 196 19.3542C195.927 16.6563 194.902 14.0312 192.927 12.0625ZM190.585 23.1458C190.366 23.7292 189.341 24.3125 188.829 24.3854C188.39 24.4583 187.805 24.4583 187.22 24.3125C186.854 24.1667 186.341 24.0208 185.756 23.7292C183.122 22.6354 181.439 20.0104 181.293 19.7917C181.146 19.6458 180.195 18.4062 180.195 17.0937C180.195 15.7812 180.854 15.1979 181.073 14.9062C181.293 14.6146 181.585 14.6146 181.805 14.6146C181.951 14.6146 182.171 14.6146 182.317 14.6146C182.463 14.6146 182.683 14.5417 182.902 15.0521C183.122 15.5625 183.634 16.875 183.707 16.9479C183.78 17.0938 183.78 17.2396 183.707 17.3854C183.634 17.5312 183.561 17.6771 183.415 17.8229C183.268 17.9687 183.122 18.1875 183.049 18.2604C182.902 18.4062 182.756 18.5521 182.902 18.7708C183.049 19.0625 183.561 19.8646 184.366 20.5937C185.39 21.4687 186.195 21.7604 186.488 21.9063C186.78 22.0521 186.927 21.9792 187.073 21.8333C187.22 21.6875 187.732 21.1042 187.878 20.8125C188.024 20.5208 188.244 20.5938 188.463 20.6667C188.683 20.7396 190 21.3958 190.22 21.5417C190.512 21.6875 190.659 21.7604 190.732 21.8333C190.805 22.0521 190.805 22.5625 190.585 23.1458Z" fill="white"/>
</svg>
