<svg width="14" height="14" viewBox="0 0 14 14" fill="none" xmlns="http://www.w3.org/2000/svg">
<path d="M6.99999 0.125C5.2741 0.125 3.87499 1.52411 3.87499 3.25C3.87499 4.97589 5.2741 6.375 6.99999 6.375C8.72588 6.375 10.125 4.97589 10.125 3.25C10.125 1.52411 8.72588 0.125 6.99999 0.125Z" fill="black"/>
<path d="M3.66666 8.04167C1.94077 8.04167 0.541656 9.44078 0.541656 11.1667V12.1569C0.541656 12.7846 0.99656 13.3198 1.61605 13.4209C5.18174 14.0031 8.81824 14.0031 12.3839 13.4209C13.0034 13.3198 13.4583 12.7846 13.4583 12.1569V11.1667C13.4583 9.44078 12.0592 8.04167 10.3333 8.04167H10.0493C9.89552 8.04167 9.74275 8.06598 9.5966 8.1137L8.87533 8.34921C7.65676 8.74712 6.34322 8.74712 5.12465 8.34921L4.40338 8.1137C4.25723 8.06598 4.10446 8.04167 3.95071 8.04167H3.66666Z" fill="black"/>
</svg>
