<svg width="18" height="16" viewBox="0 0 18 16" fill="none" xmlns="http://www.w3.org/2000/svg">
<path d="M9.72077 0.496638C9.39962 -0.0568209 8.60036 -0.0568231 8.27921 0.496638L6.0175 4.39439C5.85886 4.6678 5.58465 4.85437 5.27209 4.90158L1.0335 5.54177C0.321598 5.64929 0.0718816 6.54813 0.626303 7.00747L3.78388 9.62349C4.07616 9.86564 4.2136 10.2476 4.1426 10.6205L3.31662 14.9581C3.18605 15.6438 3.90588 16.1765 4.5235 15.8513L8.51467 13.7498C8.81845 13.5899 9.18153 13.5899 9.4853 13.7498L13.4765 15.8513C14.0941 16.1765 14.8139 15.6438 14.6834 14.9581L13.8574 10.6205C13.7864 10.2476 13.9238 9.86564 14.2161 9.62349L17.3737 7.00747C17.9281 6.54814 17.6784 5.64929 16.9665 5.54177L12.7279 4.90158C12.4153 4.85437 12.1411 4.6678 11.9825 4.3944L9.72077 0.496638Z" fill="#299764"/>
</svg>
